<?xml version="1.0" encoding="UTF-8"?><svg id="_レイヤー_1" xmlns="http://www.w3.org/2000/svg" viewBox="0 0 20 20"><defs><style>.cls-1{fill:none;}.cls-2{fill:#6b6b6b;}</style></defs><g><path class="cls-2" d="M10.08,.02c-.2,0-.39,.08-.52,.23,0,0-1.7,1.92-3.4,4.43-1.7,2.5-3.46,5.55-3.46,8.15,0,3.57,3.22,7.17,7.3,7.17s7.31-3.6,7.31-7.17c0-2.62-1.73-5.66-3.4-8.17C12.23,2.15,10.56,.24,10.56,.24c-.12-.14-.29-.23-.47-.23h0Zm-.02,1.76c.39,.45,1.36,1.57,2.73,3.62,1.61,2.42,3.17,5.44,3.17,7.43,0,2.73-2.71,5.83-5.97,5.83s-5.96-3.1-5.96-5.84c0-1.95,1.58-4.98,3.23-7.4,1.39-2.06,2.4-3.18,2.8-3.64h0Z"/><path class="cls-2" d="M10.06,.68S3.36,8.28,3.36,12.82c0,3.15,2.97,6.49,6.63,6.49s6.63-3.35,6.63-6.49C16.63,8.22,10.06,.68,10.06,.68ZM4.97,13.23c.27-.02,.51,.13,.6,.39,.45,1.26,1.53,2.41,2.85,2.94h0c.3,.12,.44,.45,.33,.76-.06,.15-.17,.26-.31,.33-.14,.06-.31,.07-.44,0-1.66-.65-2.95-2.05-3.52-3.62-.11-.31,.04-.64,.35-.75,.05-.02,.1-.03,.15-.03h0Z"/></g><rect class="cls-1" width="20" height="20"/></svg>
