<?xml version="1.0" encoding="UTF-8"?><svg id="_レイヤー_1" xmlns="http://www.w3.org/2000/svg" viewBox="0 0 19.7 19.7"><defs><style>.cls-1{fill:#6b6b6b;}</style></defs><path class="cls-1" d="M5.63,0h1.41V2.81h-1.41V0Z"/><path class="cls-1" d="M5.63,9.85h1.41v2.81h-1.41v-2.81Z"/><path class="cls-1" d="M0,5.63H2.81v1.41H0v-1.41Z"/><path class="cls-1" d="M9.85,5.63h2.81v1.41h-2.81v-1.41Z"/><path class="cls-1" d="M1.36,2.35l1-1,1.99,1.99-1,1-1.99-1.99Z"/><path class="cls-1" d="M1.36,10.31l1.99-1.99,1,1-1.99,1.99-1-.99Z"/><path class="cls-1" d="M8.32,3.35l1.99-1.99,1,1-1.99,1.99-1-1Z"/><path class="cls-1" d="M19.29,17.3L7.33,5.34c-.55-.55-1.44-.55-1.99,0-.55,.55-.55,1.44,0,1.99l11.96,11.96c.27,.27,.63,.41,.99,.41s.72-.14,.99-.41c.55-.55,.55-1.44,0-1.99Z"/></svg>
