<svg width="243" height="25" viewBox="0 0 243 25" fill="none" xmlns="http://www.w3.org/2000/svg">
<path d="M14.75 11.9C16.1 11.175 17 9.85 17 8.05C17 5.275 14.75 3.5 10.55 3.5H2.35V21H11.05C15.55 21 17.9 19.25 17.9 16.25C17.9 13.975 16.625 12.5 14.75 11.9ZM10.2 6.05C12.45 6.05 13.725 6.85 13.725 8.475C13.725 10.075 12.45 10.875 10.2 10.875H5.6V6.05H10.2ZM10.85 18.45H5.6V13.4H10.85C13.3 13.4 14.625 14.175 14.625 15.925C14.625 17.675 13.3 18.45 10.85 18.45ZM26.3686 21H38.7686V18.25H29.6186V3.5H26.3686V21ZM59.5564 21H62.9564L55.0564 3.5H51.8564L43.9814 21H47.3314L49.0564 16.95H57.8064L59.5564 21ZM50.1564 14.4L53.4314 6.75L56.7314 14.4H50.1564ZM82.507 3.5V15.35L72.857 3.5H70.182V21H73.407V9.15L83.057 21H85.732V3.5H82.507ZM103.521 21.25C106.396 21.25 108.846 20.225 110.471 18.325L108.371 16.325C107.096 17.725 105.521 18.4 103.696 18.4C100.071 18.4 97.4463 15.85 97.4463 12.25C97.4463 8.65 100.071 6.1 103.696 6.1C105.521 6.1 107.096 6.775 108.371 8.15L110.471 6.175C108.846 4.275 106.396 3.25 103.546 3.25C98.1713 3.25 94.1713 7.025 94.1713 12.25C94.1713 17.475 98.1713 21.25 103.521 21.25ZM142.795 3.5V10.725H133.745V3.5H130.495V21H133.745V13.5H142.795V21H146.045V3.5H142.795ZM163.909 21.25C169.334 21.25 173.334 17.45 173.334 12.25C173.334 7.05 169.334 3.25 163.909 3.25C158.484 3.25 154.484 7.075 154.484 12.25C154.484 17.425 158.484 21.25 163.909 21.25ZM163.909 18.4C160.384 18.4 157.759 15.825 157.759 12.25C157.759 8.675 160.384 6.1 163.909 6.1C167.434 6.1 170.059 8.675 170.059 12.25C170.059 15.825 167.434 18.4 163.909 18.4ZM194.104 3.5V15.35L184.454 3.5H181.779V21H185.004V9.15L194.654 21H197.329V3.5H194.104ZM210.268 18.275V13.45H218.718V10.775H210.268V6.225H219.793V3.5H207.018V21H220.143V18.275H210.268ZM242.971 3.5H239.771L234.596 12.025L229.471 3.5H225.996L232.871 14.875V21H236.121V14.825L242.971 3.5Z" fill="#6B6B6B"/>
</svg>
